<svg width="23" height="25" viewBox="0 0 23 25" fill="none" xmlns="http://www.w3.org/2000/svg">
<path d="M15.5889 10.1607C15.5889 10.7497 15.3735 11.3145 14.9901 11.731C14.6067 12.1475 14.0867 12.3814 13.5445 12.3814H6.21308C5.6709 12.3815 5.15097 12.6156 4.76765 13.0321L2.51671 15.4771C2.41521 15.5874 2.2859 15.6624 2.14512 15.6928C2.00435 15.7232 1.85843 15.7076 1.72583 15.648C1.59322 15.5883 1.47987 15.4873 1.40012 15.3577C1.32037 15.228 1.2778 15.0756 1.27778 14.9197V3.49851C1.27778 2.90953 1.49317 2.34468 1.87658 1.92821C2.25999 1.51175 2.78001 1.27778 3.32223 1.27778H13.5445C14.0867 1.27778 14.6067 1.51175 14.9901 1.92821C15.3735 2.34468 15.5889 2.90953 15.5889 3.49851V10.1607Z" stroke="#1E3A5F" stroke-width="2.5" stroke-linecap="round" stroke-linejoin="round"/>
<path d="M19.6778 9.05026C20.22 9.05026 20.74 9.28423 21.1234 9.7007C21.5068 10.1172 21.7222 10.682 21.7222 11.271V22.6922C21.7222 22.8481 21.6796 23.0005 21.5999 23.1301C21.5201 23.2598 21.4068 23.3608 21.2742 23.4205C21.1416 23.4801 20.9956 23.4957 20.8549 23.4653C20.7141 23.4349 20.5848 23.3598 20.4833 23.2496L18.2323 20.8046C17.849 20.3881 17.3291 20.154 16.7869 20.1539H9.45551C8.91329 20.1539 8.39328 19.9199 8.00987 19.5035C7.62646 19.087 7.41106 18.5222 7.41106 17.9332V16.8228" stroke="#1E3A5F" stroke-width="2.5" stroke-linecap="round" stroke-linejoin="round"/>
</svg>
