<svg width="9" height="11" viewBox="0 0 9 11" fill="none" xmlns="http://www.w3.org/2000/svg">
<path d="M8.5 4.5C8.5 6.9965 5.7305 9.5965 4.8005 10.3995C4.71386 10.4646 4.6084 10.4999 4.5 10.4999C4.3916 10.4999 4.28614 10.4646 4.1995 10.3995C3.2695 9.5965 0.5 6.9965 0.5 4.5C0.5 3.43913 0.921427 2.42172 1.67157 1.67157C2.42172 0.921427 3.43913 0.5 4.5 0.5C5.56087 0.5 6.57828 0.921427 7.32843 1.67157C8.07857 2.42172 8.5 3.43913 8.5 4.5Z" stroke="#1E3A5F" stroke-linecap="round" stroke-linejoin="round"/>
<path d="M4.5 6.00024C5.32843 6.00024 6 5.32867 6 4.50024C6 3.67182 5.32843 3.00024 4.5 3.00024C3.67157 3.00024 3 3.67182 3 4.50024C3 5.32867 3.67157 6.00024 4.5 6.00024Z" stroke="#1E3A5F" stroke-linecap="round" stroke-linejoin="round"/>
</svg>
